<?xml version="1.0" encoding="UTF-8"?>
<svg id="Layer_2" data-name="Layer 2" xmlns="http://www.w3.org/2000/svg" viewBox="0 0 3517.42 819.76">
  <defs>
    <style>
      .cls-1 {
        fill: #2b2b2b;
      }
    </style>
  </defs>
  <g id="Layer_1-2" data-name="Layer 1">
    <g>
      <path class="cls-1" d="M0,803.92V0h113.28v803.92H0Z"/>
      <path class="cls-1" d="M240.57,803.92V174.18h99.88l-10.98,199.76h20.71c11.37-49.52,26.59-90.14,45.68-121.8,19.07-31.67,43.24-55.22,72.48-70.65,29.23-15.42,63.33-23.14,102.31-23.14,69.83,0,122.8,24.97,158.95,74.91,36.13,49.94,54.22,124.45,54.22,223.51v347.15h-112.07v-337.4c0-71.45-11.16-124.24-33.49-158.35-22.35-34.1-55.02-51.16-98.05-51.16-38.99,0-72.08,12.18-99.27,36.55-27.23,24.36-48.55,56.44-63.95,96.23-15.43,39.8-23.95,82.82-25.59,129.11v285.03h-110.83Z"/>
      <path class="cls-1" d="M1129.01,819.76c-43.85,0-82.82-4.68-116.92-14.01-34.11-9.32-62.55-22.73-85.27-40.2-22.76-17.45-40.21-38.36-52.4-62.73-12.16-24.36-18.68-51.15-19.48-80.39l93.8-24.36c-1.64,26.8,5.06,50.15,20.09,70.04,15.02,19.91,36.55,35.14,64.56,45.67,28.02,10.57,61.92,15.84,101.72,15.84,47.91,0,85.05-8.1,111.45-24.36,26.38-16.24,39.59-38.56,39.59-67,0-22.73-7.31-40.39-21.92-52.99-14.62-12.58-34.72-22.72-60.3-30.45-25.58-7.7-55.84-14.8-90.74-21.32-29.23-6.49-58.48-13.8-87.71-21.92-29.23-8.1-55.84-18.88-79.79-32.28-23.95-13.4-43.24-31.06-57.85-52.99-14.62-21.92-21.92-49.12-21.92-81.61,0-38.15,10.16-71.04,30.46-98.66,20.29-27.59,49.12-49.12,86.48-64.56,37.34-15.42,82.01-23.14,133.98-23.14s96.24,7.91,132.78,23.75c36.54,15.84,65.34,37.97,86.48,66.39,21.1,28.43,32.9,61.72,35.33,99.88l-96.23,24.36c-.82-26.8-7.91-49.52-21.32-68.21-13.39-18.67-32.28-32.68-56.64-42.03-24.36-9.32-52.79-14-85.25-14-43.06,0-77.17,8.13-102.34,24.36-25.17,16.25-37.75,38.58-37.75,67,0,21.13,7.49,38.18,22.53,51.15,15.02,13,35.52,23.14,61.52,30.46,25.97,7.31,54.81,14.62,86.48,21.92,32.47,6.5,63.52,13.82,93.18,21.92,29.62,8.13,56.22,18.69,79.78,31.67,23.55,13,42.21,30.26,56.04,51.77,13.8,21.52,20.71,48.93,20.71,82.22,0,41.41-10.98,76.13-32.9,104.14-21.92,28.02-52.58,49.14-91.95,63.34-39.4,14.2-85.48,21.32-138.25,21.32Z"/>
      <path class="cls-1" d="M1497.39,803.92c-.05-60.09-.11-120.18-.17-180.27v-356.89h-95.01l1.21-92.57h59.7c20.29,0,35.11-3.65,44.45-10.96,9.32-7.31,14.8-19.49,16.43-36.55l12.19-95.01h68.21v142.51h181.49c-.03,22.8-.06,45.6-.09,68.39-9.41.79-23.51,2-40.63,3.61-96.23,9.03-117.51,14.51-130.04,30.65-10.47,13.49-10.9,29.34-11.04,39.97-.75,56.42-1.28,163.99.3,304.41-.04,60.9-.09,121.8-.13,182.71h-106.89Z"/>
      <path class="cls-1" d="M1786.51,133.01c-26,0-45.48-5.27-58.46-15.83-13.01-10.54-19.5-26.38-19.5-47.51s6.49-36.94,19.5-47.51c12.98-10.54,32.07-15.84,57.25-15.84s45.45,5.29,58.46,15.84c12.98,10.57,19.5,26.4,19.5,47.51s-6.52,35.93-19.5,46.89c-13.01,10.96-32.08,16.44-57.25,16.44ZM1730.48,803.54v-501.27h110.86v501.27h-110.86Z"/>
      <path class="cls-1" d="M1939.7,803.92V174.18h99.88l-10.96,199.76h20.69c11.37-49.52,26.59-90.14,45.7-121.8,19.07-31.67,43.24-55.22,72.47-70.65,29.23-15.42,63.34-23.14,102.31-23.14,69.83,0,122.82,24.97,158.96,74.91,36.13,49.94,54.2,124.45,54.2,223.51v347.15h-112.06v-337.4c0-71.45-11.17-124.24-33.49-158.35-22.35-34.1-55.03-51.16-98.06-51.16-38.98,0-72.08,12.18-99.27,36.55-27.21,24.36-48.53,56.44-63.95,96.23-15.43,39.8-23.95,82.82-25.58,129.11v285.03h-110.84Z"/>
      <path class="cls-1" d="M2862.98,819.76c-55.22,0-102.12-8.94-140.69-26.8-38.57-17.85-69.83-41.81-93.79-71.86-23.95-30.03-41.42-64.56-52.37-103.54-10.98-38.97-16.43-79.57-16.43-121.8,0-46.29,6.06-89.72,18.25-130.33,12.19-40.59,30.66-76.53,55.43-107.79,24.77-31.25,55.61-55.62,92.57-73.08,36.93-17.46,80.17-26.19,129.72-26.19s90.15,8.34,126.69,24.97c36.54,16.65,66.37,40,89.51,70.04,23.17,30.06,37.96,65.78,44.48,107.19l-105.98,29.24c-1.64-22.73-8.34-44.65-20.1-65.78-11.8-21.1-29.05-38.37-51.76-51.77-22.74-13.4-50.76-20.1-84.05-20.1s-58.67,6.09-80.99,18.27c-22.35,12.18-41.03,29.23-56.04,51.16-15.04,21.92-26.41,47.5-34.11,76.74-7.73,29.23-11.58,60.9-11.58,95.01,0,47.11,6.7,88.12,20.1,123.02,13.4,34.92,34.29,62.12,62.74,81.61,28.41,19.49,64.56,29.23,108.4,29.23,34.11,0,62.92-5.88,86.48-17.66,23.56-11.76,42.21-28.41,56.04-49.94,13.8-21.51,22.74-46.89,26.8-76.13l102.31,23.14c-5.67,34.92-16.25,65.78-31.66,92.57-15.43,26.8-34.93,48.93-58.46,66.38-23.56,17.47-50.55,30.88-81.02,40.2-30.44,9.32-63.95,14.01-100.49,14.01Z"/>
      <path class="cls-1" d="M3398.07,816.1c-58.46,0-101.91-15.84-130.35-47.51-28.41-31.67-42.63-79.97-42.63-144.95v-356.89h-95l1.21-92.57h59.7c20.29,0,35.11-3.65,44.45-10.96,9.31-7.31,14.8-19.49,16.43-36.55l12.19-95.01h68.22v142.51h181.48v93.79h-181.48v353.24c0,32.48,7.49,55.84,22.53,70.04,15.01,14.21,36.72,21.32,65.16,21.32,15.4,0,31.44-2.02,48.12-6.09,16.62-4.05,33.05-12.17,49.3-24.36v110.84c-23.56,8.94-45.27,15.02-65.16,18.27-19.89,3.24-37.96,4.87-54.19,4.87Z"/>
    </g>
  </g>
</svg>