<svg width="3012" height="481" viewBox="0 0 3012 481" fill="none" xmlns="http://www.w3.org/2000/svg">
<path d="M0.0419922 240.837C0.0419922 108.285 107.49 0.836914 240.042 0.836914C372.594 0.836914 480.042 108.285 480.042 240.837C480.042 242.909 480.013 244.982 479.954 247.025C479.925 249.098 479.838 251.141 479.721 253.184C479.575 256.454 479.341 259.723 479.02 262.963C478.933 264.159 478.816 265.327 478.699 266.494C478.378 269.384 477.999 272.245 477.59 275.106H442.912C444.81 263.955 445.773 252.513 445.773 240.837C445.773 127.23 353.649 35.1059 240.042 35.1059C126.435 35.1059 34.311 127.2 34.311 240.837C34.311 354.474 126.435 446.568 240.042 446.568H363.691C327.583 468.314 285.257 480.837 240.042 480.837C107.49 480.837 0.0419922 373.389 0.0419922 240.837Z" fill="black"/>
<path d="M102.936 240.843C102.936 165.124 164.322 103.738 240.041 103.738C315.76 103.738 377.176 165.124 377.176 240.843C377.176 252.665 375.687 264.166 372.856 275.112H408.059C410.306 264.049 411.474 252.577 411.474 240.843C411.474 146.18 334.733 69.4104 240.041 69.4104C145.349 69.4104 68.6376 146.18 68.6376 240.843C68.6376 335.506 145.378 412.276 240.041 412.276H408C418.713 401.797 428.433 390.296 437.015 377.978H240.041C164.322 377.978 102.936 316.591 102.936 240.843Z" fill="black"/>
<path d="M171.504 240.844C171.504 202.984 202.183 172.305 240.042 172.305C277.902 172.305 308.61 202.984 308.61 240.844C308.61 253.337 305.282 265.042 299.415 275.113H337.011C340.806 264.4 342.879 252.87 342.879 240.844C342.879 184.069 296.846 138.007 240.042 138.007C183.239 138.007 137.206 184.069 137.206 240.844C137.206 297.618 183.268 343.68 240.042 343.68H456.953C462.178 332.704 466.586 321.262 470.089 309.411H240.042C202.183 309.411 171.504 278.703 171.504 240.844Z" fill="black"/>
<path fill-rule="evenodd" clip-rule="evenodd" d="M763.358 93.0206C845.479 93.0206 908.711 157.074 908.711 240.016C908.711 324.189 845.479 388.653 763.358 388.653C680.828 388.653 618.006 324.189 618.006 240.016C618.006 157.074 680.828 93.0206 763.358 93.0206ZM763.358 131.206C704.232 131.206 658.655 178.836 658.655 240.016C658.655 302.427 704.232 350.467 763.358 350.467C822.485 350.467 868.062 302.427 868.062 240.016C868.062 178.836 822.485 131.206 763.358 131.206Z" fill="black"/>
<path d="M1041.4 180.068C1093.14 180.068 1125.16 214.558 1125.16 269.99V384.547H1087.39V274.096C1087.39 239.195 1066.04 216.201 1032.78 216.201C999.109 216.201 977.347 239.195 977.347 274.096V384.547H939.161V184.174H977.347V219.075C990.076 194.439 1012.66 180.068 1041.4 180.068Z" fill="black"/>
<path fill-rule="evenodd" clip-rule="evenodd" d="M1364.81 97.1266H1327.03V225.234C1312.25 196.492 1285.97 180.068 1250.66 180.068C1196.46 180.068 1153.35 226.466 1153.35 284.361C1153.35 342.255 1196.46 388.653 1250.66 388.653C1285.97 388.653 1312.25 372.229 1327.03 343.487V384.547H1364.81V97.1266ZM1327.03 284.361C1327.03 323.778 1297.88 352.52 1258.46 352.52C1220.28 352.52 1190.3 322.547 1190.3 284.361C1190.3 246.175 1220.28 216.201 1258.46 216.201C1297.88 216.201 1327.03 244.943 1327.03 284.361Z" fill="black"/>
<path fill-rule="evenodd" clip-rule="evenodd" d="M1499.5 180.068C1557.4 180.068 1602.98 225.645 1602.98 284.771C1602.98 343.487 1557.4 388.653 1499.5 388.653C1441.2 388.653 1396.03 343.487 1396.03 284.771C1396.03 225.645 1441.2 180.068 1499.5 180.068ZM1499.5 216.201C1461.73 216.201 1432.99 245.764 1432.99 284.771C1432.99 322.957 1461.73 352.52 1499.5 352.52C1536.87 352.52 1566.02 322.957 1566.02 284.771C1566.02 245.764 1536.87 216.201 1499.5 216.201Z" fill="black"/>
<path d="M1912.21 94.2619C1925.77 94.2619 1937.68 106.175 1937.68 119.731C1937.68 133.698 1925.77 145.2 1912.21 145.2C1898.24 145.2 1886.74 133.698 1886.74 119.731C1886.74 106.175 1898.24 94.2619 1912.21 94.2619Z" fill="black"/>
<path d="M1892.9 184.225H1931.11V384.691H1892.9V184.225Z" fill="black"/>
<path d="M1706 97.1374H1871.14V134.93H1745.85V218.321H1857.58V256.114H1745.85V384.691H1706V97.1374Z" fill="black"/>
<path d="M2153.22 270.081C2153.22 214.624 2121.18 180.117 2069.42 180.117C2040.67 180.117 2018.07 194.495 2005.34 219.142V184.225H1967.13V384.691H2005.34V274.188C2005.34 239.271 2027.11 216.267 2060.8 216.267C2094.07 216.267 2115.43 239.271 2115.43 274.188V384.691H2153.22V270.081Z" fill="black"/>
<path fill-rule="evenodd" clip-rule="evenodd" d="M2265.86 180.117C2319.68 180.117 2350.08 212.159 2350.08 259.811V384.691H2313.93V355.936C2299.96 376.886 2277.78 388.799 2248.61 388.799C2209.17 388.799 2182.47 363.741 2182.47 330.878C2182.47 287.745 2220.27 263.097 2282.29 263.097H2313.93V257.757C2313.93 229.412 2295.03 211.337 2265.86 211.337C2240.81 211.337 2220.27 227.769 2218.62 250.363H2184.94C2187.81 210.927 2223.14 180.117 2265.86 180.117ZM2254.77 358.811C2290.1 358.811 2313.93 332.521 2313.93 304.176V291.442H2281.88C2239.57 291.442 2216.16 303.355 2216.16 327.591C2216.16 346.077 2230.95 358.811 2254.77 358.811Z" fill="black"/>
<path d="M2570.23 270.081C2570.23 214.624 2538.19 180.117 2486.43 180.117C2457.67 180.117 2435.08 194.495 2422.34 219.142V184.225H2384.14V384.691H2422.34V274.188C2422.34 239.271 2444.11 216.267 2477.8 216.267C2511.07 216.267 2532.43 239.271 2532.43 274.188V384.691H2570.23V270.081Z" fill="black"/>
<path d="M2699.64 388.799C2641.31 388.799 2596.12 343.612 2596.12 284.869C2596.12 225.715 2641.31 180.117 2699.64 180.117C2746.47 180.117 2787.14 211.337 2793.71 253.238H2755.1C2749.34 231.877 2725.93 216.267 2699.64 216.267C2661.85 216.267 2633.09 245.844 2633.09 284.869C2633.09 323.073 2661.85 352.65 2699.64 352.65C2725.93 352.65 2750.17 337.039 2755.51 314.035H2793.71C2787.96 357.99 2746.88 388.799 2699.64 388.799Z" fill="black"/>
<path fill-rule="evenodd" clip-rule="evenodd" d="M3010.97 294.728C3011.38 291.442 3011.79 283.226 3011.79 279.529C3011.79 221.607 2968.66 180.117 2914.84 180.117C2857.33 180.117 2812.56 225.715 2812.56 283.637C2812.56 343.201 2856.92 388.799 2915.25 388.799C2963.73 388.799 3002.34 361.687 3009.74 319.786H2971.94C2967.01 341.147 2944.42 354.703 2916.49 354.703C2879.1 354.703 2854.46 330.878 2849.94 294.728H3010.97ZM2970.71 262.686H2851.17C2858.15 232.698 2881.98 214.624 2913.2 214.624C2944.83 214.624 2967.42 234.752 2970.71 262.686Z" fill="black"/>
</svg>
