<svg xmlns="http://www.w3.org/2000/svg" width="812" height="159" fill="none"><path fill="black" d="M37.722 123.16c-5.64 0-10.08-.48-13.32-1.44-3.24-.84-5.82-1.68-7.74-2.52-1.92-.96-3.66-1.44-5.22-1.44-1.2 0-2.22.42-3.06 1.26-.84.72-1.38 1.5-1.62 2.34h-3.96L.462 84.28h4.5c.96 3.48 2.22 7.14 3.78 10.98 1.68 3.72 3.84 7.2 6.48 10.44 2.64 3.12 5.76 5.64 9.36 7.56 3.72 1.92 8.04 2.88 12.96 2.88 4.68 0 8.64-.84 11.88-2.52 3.36-1.8 5.88-4.26 7.56-7.38 1.8-3.24 2.7-6.96 2.7-11.16 0-5.76-1.74-10.5-5.22-14.22-3.36-3.72-8.46-7.02-15.3-9.9l-5.22-2.16c-5.52-2.28-10.74-4.86-15.66-7.74-4.92-3-8.88-6.72-11.88-11.16-3-4.56-4.5-10.26-4.5-17.1 0-6.48 1.5-12.18 4.5-17.1 3-4.92 7.32-8.76 12.96-11.52 5.64-2.76 12.24-4.14 19.8-4.14 4.8 0 8.7.42 11.7 1.26 3 .72 5.4 1.5 7.2 2.34 1.92.84 3.54 1.26 4.86 1.26.96 0 1.68-.3 2.16-.9.48-.6.84-1.56 1.08-2.88h3.78l1.8 32.4h-4.32c-1.08-5.52-2.82-10.26-5.22-14.22-2.28-3.96-5.16-7.02-8.64-9.18-3.48-2.16-7.68-3.24-12.6-3.24-6.12 0-11.04 1.74-14.76 5.22-3.72 3.36-5.58 7.98-5.58 13.86 0 4.32 1.08 7.92 3.24 10.8 2.28 2.76 5.16 5.16 8.64 7.2 3.48 1.92 7.14 3.72 10.98 5.4l6.3 2.52c5.4 2.16 10.32 4.74 14.76 7.74 4.56 3 8.16 6.72 10.8 11.16 2.76 4.44 4.14 10.02 4.14 16.74 0 4.8-.84 9.36-2.52 13.68-1.56 4.32-4.02 8.1-7.38 11.34-3.36 3.24-7.68 5.82-12.96 7.74-5.28 1.92-11.58 2.88-18.9 2.88Zm68.843 35.64c-3.24 0-6.12-.6-8.64-1.8-2.52-1.2-4.5-2.82-5.94-4.86-1.32-2.04-1.98-4.32-1.98-6.84 0-3.12 1.02-5.82 3.06-8.1 2.04-2.28 4.56-3.42 7.56-3.42 2.4 0 4.44.84 6.12 2.52 1.68 1.68 2.52 3.84 2.52 6.48 0 1.56-.24 2.76-.72 3.6-.36.96-.78 1.74-1.26 2.34-.48.6-.72 1.26-.72 1.98 0 .48.3.84.9 1.08.6.36 1.38.54 2.34.54 3.12 0 5.64-1.2 7.56-3.6 1.92-2.4 3.96-6.66 6.12-12.78l31.68-88.02c.6-1.8.6-3.18 0-4.14-.6-1.08-1.68-1.62-3.24-1.62h-7.2v-5.58h31.86v5.58c-2.76 0-4.92.24-6.48.72a7.161 7.161 0 0 0-3.78 2.7c-.96 1.32-1.98 3.42-3.06 6.3l-28.26 72c-1.92 4.68-3.72 9.12-5.4 13.32-1.56 4.32-3.36 8.04-5.4 11.16-1.92 3.24-4.32 5.76-7.2 7.56-2.76 1.92-6.24 2.88-10.44 2.88Zm23.22-30.96-31.5-77.94c-.84-2.28-1.68-3.96-2.52-5.04-.84-1.08-1.98-1.8-3.42-2.16-1.44-.36-3.6-.54-6.48-.54v-5.58h41.4v5.58h-5.94c-1.68 0-2.82.48-3.42 1.44-.48.96-.36 2.4.36 4.32l18.36 50.94h3.96l-10.8 28.98ZM291.576 121v-5.76c3.24 0 5.58-.12 7.02-.36 1.56-.36 2.58-1.14 3.06-2.34s.72-3.12.72-5.76V63.4c0-3.84-.6-7.08-1.8-9.72-1.08-2.64-2.76-4.68-5.04-6.12-2.28-1.44-5.16-2.16-8.64-2.16-2.88 0-5.52.54-7.92 1.62-2.28 1.08-4.44 2.64-6.48 4.68-2.04 1.92-4.02 4.26-5.94 7.02v-9.18c3.72-4.44 8.34-8.04 13.86-10.8 5.52-2.76 11.34-4.14 17.46-4.14 7.44 0 13.2 2.22 17.28 6.66 4.2 4.44 6.3 10.98 6.3 19.62v45.18c0 2.64.18 4.62.54 5.94.48 1.32 1.56 2.22 3.24 2.7 1.8.36 4.5.54 8.1.54V121h-41.76Zm-107.1 0v-5.76c3.72 0 6.36-.24 7.92-.72 1.68-.48 2.7-1.38 3.06-2.7.48-1.32.72-3.24.72-5.76V53.5c0-3.12-.36-5.22-1.08-6.3-.6-1.2-1.92-1.8-3.96-1.8h-5.76v-5.94l24.48-3.96h5.04v11.7h.54v59.58c0 2.76.3 4.74.9 5.94.6 1.2 1.62 1.92 3.06 2.16 1.56.24 3.78.36 6.66.36V121h-41.58Zm54 0v-5.76c3.24 0 5.58-.12 7.02-.36 1.56-.36 2.58-1.14 3.06-2.34.6-1.2.9-3.12.9-5.76V63.4c0-3.84-.6-7.08-1.8-9.72-1.08-2.64-2.82-4.68-5.22-6.12-2.28-1.44-5.22-2.16-8.82-2.16-2.64 0-5.16.48-7.56 1.44-2.4.96-4.68 2.34-6.84 4.14-2.04 1.8-3.9 3.96-5.58 6.48v-8.82c3.12-3 6.36-5.52 9.72-7.56 3.36-2.16 6.84-3.78 10.44-4.86 3.6-1.08 7.2-1.62 10.8-1.62 5.16 0 9.48 1.02 12.96 3.06 3.6 2.04 6.3 4.62 8.1 7.74 1.8 3.12 2.7 6.3 2.7 9.54v51.12c0 2.52.24 4.44.72 5.76.48 1.32 1.44 2.22 2.88 2.7 1.56.48 3.96.72 7.2.72V121h-40.68Zm210.072 0v-5.76c3.24 0 5.58-.12 7.02-.36 1.56-.36 2.58-1.14 3.06-2.34s.72-3.12.72-5.76V63.4c0-3.84-.6-7.08-1.8-9.72-1.08-2.64-2.76-4.68-5.04-6.12-2.28-1.44-5.16-2.16-8.64-2.16-2.88 0-5.52.54-7.92 1.62-2.28 1.08-4.44 2.64-6.48 4.68-2.04 1.92-4.02 4.26-5.94 7.02v-9.18c3.72-4.44 8.34-8.04 13.86-10.8 5.52-2.76 11.34-4.14 17.46-4.14 7.44 0 13.2 2.22 17.28 6.66 4.2 4.44 6.3 10.98 6.3 19.62v45.18c0 2.64.18 4.62.54 5.94.48 1.32 1.56 2.22 3.24 2.7 1.8.36 4.5.54 8.1.54V121h-41.76Zm-107.1 0v-5.76c3.72 0 6.36-.24 7.92-.72 1.68-.48 2.7-1.38 3.06-2.7.48-1.32.72-3.24.72-5.76V53.5c0-3.12-.36-5.22-1.08-6.3-.6-1.2-1.92-1.8-3.96-1.8h-5.76v-5.94l24.48-3.96h5.04v11.7h.54v59.58c0 2.76.3 4.74.9 5.94.6 1.2 1.62 1.92 3.06 2.16 1.56.24 3.78.36 6.66.36V121h-41.58Zm54 0v-5.76c3.24 0 5.58-.12 7.02-.36 1.56-.36 2.58-1.14 3.06-2.34.6-1.2.9-3.12.9-5.76V63.4c0-3.84-.6-7.08-1.8-9.72-1.08-2.64-2.82-4.68-5.22-6.12-2.28-1.44-5.22-2.16-8.82-2.16-2.64 0-5.16.48-7.56 1.44-2.4.96-4.68 2.34-6.84 4.14-2.04 1.8-3.9 3.96-5.58 6.48v-8.82c3.12-3 6.36-5.52 9.72-7.56 3.36-2.16 6.84-3.78 10.44-4.86 3.6-1.08 7.2-1.62 10.8-1.62 5.16 0 9.48 1.02 12.96 3.06 3.6 2.04 6.3 4.62 8.1 7.74 1.8 3.12 2.7 6.3 2.7 9.54v51.12c0 2.52.24 4.44.72 5.76.48 1.32 1.44 2.22 2.88 2.7 1.56.48 3.96.72 7.2.72V121h-40.68Zm143.833 1.8c-12.96 0-22.62-3.66-28.98-10.98-6.36-7.44-9.54-18.3-9.54-32.58 0-9.72 1.44-17.88 4.32-24.48 3-6.72 7.32-11.76 12.96-15.12 5.76-3.36 12.78-5.04 21.06-5.04 7.32 0 13.32 1.14 18 3.42 4.8 2.28 8.58 5.46 11.34 9.54 2.76 3.96 4.74 8.52 5.94 13.68 1.2 5.16 1.8 10.62 1.8 16.38v2.16h-60.66v-6.84h40.32c0-6.48-.42-12.06-1.26-16.74-.84-4.8-2.4-8.46-4.68-10.98-2.28-2.52-5.7-3.78-10.26-3.78-4.2 0-7.68 1.2-10.44 3.6-2.76 2.4-4.8 6.12-6.12 11.16-1.32 4.92-1.98 11.28-1.98 19.08 0 5.28.36 10.2 1.08 14.76.72 4.56 1.92 8.58 3.6 12.06 1.8 3.36 4.32 6 7.56 7.92 3.24 1.8 7.44 2.7 12.6 2.7 4.44 0 8.16-.72 11.16-2.16 3.12-1.44 5.76-3.42 7.92-5.94 2.16-2.64 3.9-5.64 5.22-9l5.4 2.88c-1.56 3.96-3.66 7.8-6.3 11.52-2.52 3.72-6.18 6.78-10.98 9.18-4.8 2.4-11.16 3.6-19.08 3.6Zm78.421.18c-3.84 0-7.32-.72-10.44-2.16-3-1.44-5.34-3.66-7.02-6.66-1.68-3.12-2.52-6.96-2.52-11.52v-59.4h-11.34v-5.76c4.32-1.08 7.98-2.82 10.98-5.22 3.12-2.52 5.7-5.76 7.74-9.72 2.04-4.08 3.66-8.76 4.86-14.04h6.84v28.08h19.44v6.66h-19.44v54.18c0 5.28.96 9.18 2.88 11.7 1.92 2.4 4.8 3.6 8.64 3.6 1.68 0 3.36-.3 5.04-.9 1.8-.6 3.3-1.14 4.5-1.62l1.98 4.32a96.83 96.83 0 0 1-5.76 3.78c-2.16 1.32-4.56 2.4-7.2 3.24-2.64.96-5.7 1.44-9.18 1.44Zm29.254-1.98v-5.76c3.72 0 6.36-.24 7.92-.72 1.68-.48 2.7-1.38 3.06-2.7.48-1.44.72-3.36.72-5.76V53.5c0-3.12-.36-5.22-1.08-6.3-.6-1.2-1.92-1.8-3.96-1.8h-5.76v-5.94l24.48-3.96h5.04v16.02h.54v54.54c0 2.64.3 4.62.9 5.94.72 1.32 2.1 2.22 4.14 2.7 2.04.36 5.22.54 9.54.54V121h-45.54Zm30.06-49.5V52.96c.84-1.56 1.86-3.36 3.06-5.4 1.2-2.16 2.7-4.2 4.5-6.12 1.8-2.04 3.96-3.72 6.48-5.04 2.52-1.32 5.46-1.98 8.82-1.98 5.16 0 8.88 1.5 11.16 4.5 2.28 2.88 3.42 6.36 3.42 10.44 0 3.72-.96 6.72-2.88 9-1.8 2.16-4.56 3.24-8.28 3.24-3.24 0-5.76-.84-7.56-2.52-1.68-1.68-2.52-3.9-2.52-6.66 0-2.04.36-3.6 1.08-4.68.72-1.08 1.44-1.98 2.16-2.7.72-.72 1.08-1.38 1.08-1.98 0-.36-.18-.72-.54-1.08-.36-.48-.96-.72-1.8-.72-1.68 0-3.54.78-5.58 2.34-1.92 1.44-3.78 3.54-5.58 6.3-1.8 2.76-3.3 5.94-4.5 9.54-1.08 3.6-1.62 7.5-1.62 11.7l-.9.36Zm64.471 87.3c-3.24 0-6.12-.6-8.64-1.8-2.52-1.2-4.5-2.82-5.94-4.86-1.32-2.04-1.98-4.32-1.98-6.84 0-3.12 1.02-5.82 3.06-8.1 2.04-2.28 4.56-3.42 7.56-3.42 2.4 0 4.44.84 6.12 2.52 1.68 1.68 2.52 3.84 2.52 6.48 0 1.56-.24 2.76-.72 3.6-.36.96-.78 1.74-1.26 2.34-.48.6-.72 1.26-.72 1.98 0 .48.3.84.9 1.08.6.36 1.38.54 2.34.54 3.12 0 5.64-1.2 7.56-3.6 1.92-2.4 3.96-6.66 6.12-12.78l31.68-88.02c.6-1.8.6-3.18 0-4.14-.6-1.08-1.68-1.62-3.24-1.62h-7.2v-5.58h31.86v5.58c-2.76 0-4.92.24-6.48.72a7.161 7.161 0 0 0-3.78 2.7c-.96 1.32-1.98 3.42-3.06 6.3l-28.26 72c-1.92 4.68-3.72 9.12-5.4 13.32-1.56 4.32-3.36 8.04-5.4 11.16-1.92 3.24-4.32 5.76-7.2 7.56-2.76 1.92-6.24 2.88-10.44 2.88Zm23.22-30.96-31.5-77.94c-.84-2.28-1.68-3.96-2.52-5.04-.84-1.08-1.98-1.8-3.42-2.16-1.44-.36-3.6-.54-6.48-.54v-5.58h41.4v5.58h-5.94c-1.68 0-2.82.48-3.42 1.44-.48.96-.36 2.4.36 4.32l18.36 50.94h3.96l-10.8 28.98Z"/></svg>