<svg xmlns="http://www.w3.org/2000/svg" viewBox="494.74 83.96 1159.32 222.05" fill="none">
<path d="M498.742 297.395L553.842 218.927L500.184 142.768H546.053L579.228 192.387L611.25 142.768H658.272L604.903 219.216L659.715 297.395H613.846L579.805 244.891L545.476 297.395H498.742ZM772.691 302.01C719.611 302.01 688.455 273.739 685.281 229.89L729.419 227.87C732.881 252.103 746.728 265.662 773.268 265.662C794.904 265.662 807.598 257.584 807.598 242.006C807.598 227.87 800.386 219.504 762.018 210.85C709.514 199.022 689.32 184.598 689.32 149.692C689.32 113.055 717.88 87.9568 766.056 87.9568C816.829 87.9568 844.235 116.805 848.562 157.192L804.713 159.5C802.405 138.153 788.846 124.305 765.479 124.305C745.574 124.305 733.458 133.825 733.458 148.249C733.458 163.539 742.978 169.886 776.153 176.809C832.984 188.348 851.735 208.831 851.735 239.987C851.735 278.355 821.156 302.01 772.691 302.01ZM943.243 297.395C911.221 297.395 896.797 283.259 896.797 250.949V175.078H871.988V142.768H896.797V106.42H940.069V142.768H980.745V175.078H940.069V245.756C940.069 260.757 946.416 265.085 959.109 265.085H980.745V297.395H943.243ZM1073.82 300.856C1026.51 300.856 995.354 269.123 995.354 220.081C995.354 171.328 1026.51 139.307 1073.82 139.307C1121.13 139.307 1152.29 171.328 1152.29 220.081C1152.29 269.123 1121.13 300.856 1073.82 300.856ZM1073.82 267.681C1095.46 267.681 1107.86 250.084 1107.86 220.081C1107.86 190.079 1095.46 172.482 1073.82 172.482C1052.19 172.482 1039.78 190.079 1039.78 220.081C1039.78 250.084 1052.19 267.681 1073.82 267.681ZM1249.33 300.856C1201.73 300.856 1170.87 268.835 1170.87 220.081C1170.87 171.328 1201.73 139.307 1249.33 139.307C1290.59 139.307 1320.3 161.808 1324.92 199.888L1280.2 201.907C1277.6 182.867 1265.78 172.77 1249.33 172.77C1227.7 172.77 1215.29 190.079 1215.29 220.081C1215.29 250.084 1227.7 267.681 1249.33 267.681C1266.07 267.681 1277.89 257.873 1280.2 236.813L1324.92 238.544C1320.59 276.624 1291.45 300.856 1249.33 300.856ZM1348.83 297.395V92.5725H1392.1V206.234L1449.51 142.768H1501.43L1441.43 206.523L1503.17 297.395H1455.85L1413.45 231.044L1392.1 253.834V297.395H1348.83ZM1580.82 300.856C1532.94 300.856 1508.7 278.932 1506.4 248.641L1550.24 247.199C1552.84 261.911 1562.07 270.277 1580.82 270.277C1596.4 270.277 1605.34 265.373 1605.34 254.988C1605.34 245.468 1600.44 240.852 1573.9 236.525C1524.86 228.447 1510.15 215.754 1510.15 188.925C1510.15 159.212 1533.22 139.307 1578.8 139.307C1622.36 139.307 1644.87 161.52 1648.91 192.387L1605.34 194.118C1603.32 179.117 1593.81 169.886 1578.52 169.886C1562.94 169.886 1554.57 176.809 1554.57 187.194C1554.57 198.445 1562.07 203.061 1583.42 206.234C1633.04 213.446 1650.06 227.293 1650.06 254.122C1650.06 284.124 1622.94 300.856 1580.82 300.856Z" fill="black"/>
</svg>
